
        <svg xmlns="http://www.w3.org/2000/svg" xmlns:xlink="http://www.w3.org/1999/xlink" version="1.1" width="3189.274447949527" 
        height="870.6624605678234" viewBox="0 0 3189.274447949527 870.6624605678234">
			<rect fill="#fcfcfc" width="3189.274447949527" height="870.6624605678234"/>
			<g transform="scale(9.46372239747634) translate(10, 10)">
				<defs id="SvgjsDefs3823"><linearGradient id="SvgjsLinearGradient3830"><stop id="SvgjsStop3831" stop-color="#ef4136" offset="0"></stop><stop id="SvgjsStop3832" stop-color="#fbb040" offset="1"></stop></linearGradient></defs><g id="SvgjsG3824" featureKey="symbolFeature-0" transform="matrix(0.8173455054841714,0,0,0.8173455054841714,-2.3470247800606576,-2.2615643862908965)" fill="url(#SvgjsLinearGradient3830)"><path xmlns="http://www.w3.org/2000/svg" d="M29.421,19.786c0,2.725,2.212,4.936,4.937,4.936c2.463,0,3.646-1.558,4.454-0.597c0.416,0.495,0.479,1.12,0.479,2.987v9.676  l8.237,0.003c1.208,0,1.38-0.116,1.479-0.35c0.207-0.478-0.218-1.26-0.218-3.059c0-3.791,4-6.814,7.511-6.814  c3.505,0,7.501,2.874,7.501,6.814c0,1.799-0.424,2.578-0.216,3.059c0.101,0.232,0.272,0.35,1.479,0.35h8.233V6.801  c0,0,0.126-2.123-0.885-3.135c-1.009-1.007-3.401-0.885-3.401-0.885H39.292v9.68c0,1.869-0.064,2.49-0.476,2.987  c-0.808,0.963-1.994-0.596-4.457-0.596C31.633,14.852,29.421,17.061,29.421,19.786z"></path><path xmlns="http://www.w3.org/2000/svg" d="M2.886,36.794h9.681c1.869,0,2.49,0.061,2.987,0.477c0.964,0.808-0.596,1.993-0.596,4.456c0,2.727,2.211,4.938,4.937,4.938  c2.722,0,4.933-2.211,4.933-4.937c0-2.462-1.56-3.646-0.595-4.457c0.494-0.413,1.118-0.477,2.986-0.477h9.679v-8.238  c0-1.207-0.116-1.379-0.352-1.478c-0.477-0.206-1.258,0.215-3.056,0.215c-3.792,0-6.817-3.998-6.817-7.507  c0-3.507,2.873-7.505,6.817-7.505c1.795,0,2.579,0.425,3.056,0.218c0.233-0.1,0.352-0.27,0.352-1.479V2.781H7.686  c0,0-2.827-0.197-3.911,0.885c-1.084,1.087-0.89,3.516-0.89,3.516V36.794z"></path><path xmlns="http://www.w3.org/2000/svg" d="M46.768,56.415c0-2.728-2.208-4.937-4.934-4.937c-2.464,0-3.649,1.558-4.457,0.596c-0.413-0.497-0.477-1.118-0.477-2.986  v-9.679l-8.236-0.004c-1.208,0-1.38,0.12-1.482,0.354c-0.203,0.478,0.218,1.259,0.218,3.057c0,3.79-4.001,6.814-7.508,6.814  s-7.505-2.871-7.505-6.814c0-1.798,0.427-2.579,0.218-3.057c-0.099-0.23-0.27-0.35-1.479-0.35H2.886v29.332  c0,0-0.055,2.47,1.018,3.537c1.068,1.07,3.506,1.139,3.506,1.139H36.9v-9.678c0-1.867,0.064-2.492,0.477-2.986  c0.811-0.965,1.993,0.599,4.457,0.599C44.559,61.352,46.768,59.139,46.768,56.415z"></path><path xmlns="http://www.w3.org/2000/svg" d="M76.521,88.893l20.834-20.832l-6.843-6.842c-1.322-1.322-1.719-1.805-1.777-2.45c-0.109-1.252,1.832-0.984,3.574-2.728  c1.927-1.928,1.931-5.054,0-6.979c-1.929-1.929-5.049-1.929-6.978-0.003c-1.741,1.743-1.479,3.686-2.728,3.574  c-0.646-0.055-1.131-0.453-2.452-1.776l-6.845-6.843l-5.826,5.827c-0.853,0.854-0.893,1.054-0.796,1.292  c0.19,0.483,1.042,0.735,2.314,2.007c2.683,2.681,1.99,7.648-0.49,10.13c-2.483,2.48-7.337,3.274-10.126,0.485  c-1.27-1.27-1.522-2.121-2.008-2.316c-0.236-0.089-0.439-0.052-1.297,0.803l-5.822,5.825l20.908,20.907c0,0,1.642,1.885,3.141,1.883  C74.801,90.858,76.521,88.893,76.521,88.893z"></path></g><g id="SvgjsG3825" featureKey="nameFeature-0" transform="matrix(1.144901064530438,0,0,1.144901064530438,95.58259210576887,-9.865773362805424)" fill="#111111"><path d="M16.8 35.4 l-11.56 1.32 l-0.72 2.24 c-1.6 4.92 -2.56 9.28 -2.52 9.84 c0.04 0.6 0.32 1.08 1 1.04 c2.24 -0.12 7.08 -1.36 10.4 -2.4 c2.52 -0.8 3.68 -1.36 4.04 -1.68 c0.36 -0.36 1.44 0.24 1.04 0.56 c-0.4 0.36 -2.64 1.44 -5.28 2.2 c-2.64 0.8 -6.88 1.96 -9.04 2.04 c-1.48 0.08 -1.88 0 -2.04 -0.2 c-0.2 -0.16 -0.84 -0.76 -0.88 -1.48 s0.52 -4.28 2.2 -10.08 c0.16 -0.6 0.36 -1.24 0.6 -1.96 c-1.24 0.16 -2.12 0.24 -2.24 0.24 c-0.48 0.04 -0.24 -0.76 0.2 -0.84 c0.32 -0.08 1.2 -0.16 2.32 -0.32 c1.36 -4.2 3.36 -9.64 4.92 -13.64 c-3.2 0.8 -5.68 1.68 -6.2 1.92 c-0.76 0.36 -0.96 -0.48 -0.28 -0.96 c0.52 -0.4 3.16 -1.36 6.92 -2.08 c0.76 -1.92 1.4 -3.4 1.68 -4 c1 -2.08 1.2 -2.16 1.36 -2.32 c0.12 -0.16 0.92 -0.2 0.48 0.28 c-0.4 0.52 -0.6 1 -0.64 1.48 c-0.04 0.44 -0.48 0.84 -1.8 4.36 c0.92 -0.16 1.92 -0.32 3 -0.44 c5.84 -0.72 10.12 -0.64 11.12 -0.6 s0.36 0.56 -0.2 0.6 c-1.76 0.08 -5.44 -0.12 -10.72 0.76 c-1.24 0.2 -2.48 0.48 -3.6 0.72 l-0.08 0.24 c-1.4 3.8 -3.24 9.08 -4.72 13.56 c3.12 -0.36 7.4 -0.8 9.16 -1.04 c2.72 -0.36 2.84 -0.68 2.96 -0.44 c0.08 0.24 -0.2 1 -0.88 1.08 z M33.206 42.08 c-1.04 0 -0.96 -1 -0.48 -3.72 c0.52 -2.88 0.6 -3.24 0.4 -3.32 c-0.28 -0.16 -1.68 1.24 -2.72 2.52 c-1.28 1.56 -1.88 1.96 -2.36 1.88 c-0.44 -0.08 -0.56 -0.56 -0.04 -3.36 c0.44 -2.2 0.52 -3.48 0.2 -3.68 c-0.44 -0.24 -0.96 0.16 -3.16 3.68 c-2.4 3.96 -2.92 5.76 -3.56 5.76 c-0.36 0 -0.48 -0.32 -0.4 -0.88 c0.36 -2.16 0.52 -4.52 0.56 -5.4 c0.04 -0.8 1.12 -0.8 1.04 0.08 c-0.12 0.92 -0.52 2.8 -0.72 3.92 c-0.08 0.6 0.8 -1.04 2.44 -3.8 c2.04 -3.36 3 -4.36 3.88 -4.2 c1.16 0.24 0.88 1.92 0.4 4.56 l-0.36 1.96 c-0.12 0.64 0.12 0.8 0.64 0.16 c0.24 -0.24 0.56 -0.56 0.84 -0.92 c1.48 -1.8 2.92 -3.24 3.56 -3.24 c0.44 0 0.68 0.44 0.68 0.88 s-0.16 1.6 -0.56 3.44 c-0.52 2.4 -0.48 3 -0.12 3 c1.88 0 7.04 -3.04 12.36 -6.28 c0.2 -0.12 0.96 0.12 0.32 0.52 c-3.68 2.4 -10.2 6.44 -12.84 6.44 z M57.932 34.88 c0.56 0 0.76 0.44 0.16 0.52 c-1.72 0.28 -9.16 1.8 -11.72 3 c-0.12 0.4 -0.36 0.88 -0.6 1.32 c-1.56 2.6 -3.88 2.96 -4.36 2.24 c-0.32 -0.52 0.76 -2.28 3.92 -3.72 c0.04 0 0.08 -0.04 0.16 -0.08 c0.28 -0.72 0.36 -1.36 0.16 -1.68 s-0.88 -0.08 -1.92 0.84 c-0.96 0.88 -1.92 1.72 -2.36 1.64 c-0.6 -0.08 -0.28 -1.52 -0.12 -2.12 c1.28 -4.52 2.76 -10.64 4.68 -16.56 c0.8 -2.48 1.36 -3.64 1.92 -3.16 c0.36 0.36 0.28 1.56 -0.32 2.68 c-0.64 1.28 -0.84 2.12 -1.12 2.88 c-2.32 6.68 -3.04 9.8 -4.48 14.16 c-0.08 0.32 -0.44 1.28 -0.24 1.28 c0.16 0 0.92 -0.68 1.6 -1.36 c1.36 -1.32 2.44 -1.64 2.96 -1.24 c0.4 0.28 0.56 1.08 0.32 2.2 c3.84 -1.48 9.96 -2.84 11.36 -2.84 z M44.932 39.36 l0.12 -0.28 c-1.64 0.96 -3.04 2.04 -2.84 2.4 c0.2 0.28 1.92 -0.64 2.72 -2.12 z M58.098000000000006 41.24 c-0.88 -0.12 -1.48 -1.04 -0.52 -3.04 c0.4 -0.88 0.68 -1.4 0.68 -1.6 c0 -0.16 -0.12 -0.28 -0.96 -0.6 c-1.08 -0.4 -1.24 -1.44 -1.04 -2.24 c0.36 -1.44 1.52 -1.88 2.12 -1.76 c0.32 0.08 0.76 0.52 0.72 0.84 c-0.12 1.04 -0.76 1.72 -1.84 2.32 c0.08 0.08 0.2 0.16 0.36 0.2 c1.48 0.6 1.68 0.72 1.68 1.08 c0 0.32 -0.44 0.96 -0.96 2.08 c-0.6 1.24 -0.64 1.76 0.04 1.84 c2.24 0.28 7.96 -1.52 12.16 -5.12 c0.4 -0.36 0.88 -0.08 0.52 0.24 c-4.24 4.04 -10.92 6.04 -12.96 5.76 z M57.05800000000001 33.96 c-0.08 0.24 -0.12 0.48 -0.04 0.72 c1.16 -0.72 1.44 -1.32 1.48 -1.88 c0 -0.08 0 -0.12 -0.08 -0.16 c-0.4 -0.12 -1.16 0.68 -1.36 1.32 z M74.06400000000001 40.2 c2.8 0 10.92 -3.76 13.36 -5.08 c0.2 -0.12 1.04 -0.08 0.36 0.36 c-2.64 1.72 -11.12 5.56 -13.76 5.56 c-1.96 0 -2.52 -1.16 -2.52 -2 s0.16 -1.24 0.08 -1.32 c-0.12 -0.12 -0.36 -0.08 -1.64 0.6 c-1.16 0.68 -2.44 1.2 -2.84 1.2 c-0.56 0 -0.96 -0.36 -0.96 -0.6 c0 -0.76 0.48 -1.8 2 -2.92 c1.28 -1 2.08 -1.2 2.76 -1.2 c0.92 0 1.48 1.44 1.08 1.44 s-0.52 -0.8 -0.96 -0.8 c-0.4 0 -1.2 0.32 -2.32 1.08 c-1.04 0.68 -1.84 1.84 -1.84 2.16 c0 0.08 0.04 0.12 0.16 0.12 c0.36 0 1.04 -0.28 2.16 -0.84 c1.52 -0.72 2.52 -1.28 3 -1.28 c0.16 0 0.52 0.08 0.52 0.36 c0 0.32 -0.4 1.04 -0.4 1.96 c0 0.68 0.72 1.2 1.76 1.2 z M98.036 50.28 c5.32 0 12.88 -4.04 15.8 -6.84 c0.44 -0.4 0.96 -0.08 0.56 0.36 c-3.88 4.32 -11 7.52 -15.88 7.52 c-4.16 0 -6.8 -2.48 -6.8 -5.76 c0 -2.24 0.6 -7.12 6.84 -15.08 c6.04 -7.72 11.88 -11.44 15.92 -11.44 c1.52 0 2.4 0.84 2.4 2.24 s-1.56 2.12 -1.12 1.28 s0.6 -2.56 -1.2 -2.56 c-1.96 0 -8.36 2.8 -15.36 11.44 c-4.8 5.88 -6.68 10.48 -6.68 14.12 c0 2.96 3.04 4.72 5.52 4.72 z M113.882 38.36 c0.32 -0.68 0.72 -1.28 1.08 -1.76 c-0.2 -0.2 -0.4 -0.4 -0.52 -0.68 c-0.72 -1.52 0.6 -3.32 2.36 -3.32 s2.84 1.64 2.84 4.16 l0 0.12 c0.16 0 0.32 0 0.52 -0.04 c2 -0.16 5.72 -1.12 7.4 -1.72 c0.28 -0.12 0.48 0.32 0.28 0.4 c-0.88 0.36 -5.44 1.84 -7.8 2.04 c-0.16 0.04 -0.32 0.04 -0.44 0.04 c-0.36 3.84 -3.2 6.96 -5.04 6.96 c-1.8 0 -2.28 -3.08 -0.68 -6.2 z M114.402 43.84 c1.8 0 3.96 -2.72 4.32 -6.24 c-1.08 0 -2.24 -0.16 -3.08 -0.56 c-0.32 0.44 -0.68 0.96 -0.96 1.48 c-1.52 2.96 -1.04 5.32 -0.28 5.32 z M117.08200000000001 35.28 c0 0.08 -0.44 0.48 -0.96 1.12 c0.72 0.32 1.68 0.48 2.68 0.48 l0 -0.4 c0 -2.08 -1 -3.2 -2.12 -3.2 c-1.08 0 -2.08 1.04 -1.52 2.24 c0.08 0.2 0.2 0.32 0.32 0.48 c0.6 -0.64 1.12 -1 1.24 -1 c0.24 0 0.36 0.12 0.36 0.28 z M126.288 35.32 c0.08 -0.32 0.36 -0.32 0.56 -0.36 c0.24 0 0.36 0.08 0.32 0.44 c-0.08 0.76 -0.6 2.16 -0.68 2.48 c-0.04 0.08 0 0.16 0.12 0.16 s1.28 -0.56 2.08 -0.96 c1.16 -0.6 1.96 -1.04 2.56 -1.04 s1.08 0.48 1.08 1.28 c-0.08 1.12 -0.04 1.8 0.32 1.84 c0.72 0.16 3.32 -0.64 5.32 -1.48 l6.16 -2.56 c0.36 -0.16 0.56 0.4 0.12 0.6 c-1.64 0.84 -3.92 1.76 -6.04 2.68 c-2.08 0.88 -4.8 1.76 -6 1.52 c-0.84 -0.16 -1.04 -1 -0.96 -2.12 c0.04 -0.6 0 -0.84 -0.12 -0.92 c-0.2 -0.12 -0.64 0.04 -1.4 0.44 c-0.64 0.32 -2.84 1.44 -3.2 1.44 c-0.24 0 -0.96 -0.28 -0.96 -0.6 c0 -0.2 0.52 -1.56 0.72 -2.84 z M142.774 35.32 c0.08 -0.32 0.36 -0.32 0.56 -0.36 c0.24 0 0.36 0.08 0.32 0.44 c-0.08 0.76 -0.6 2.16 -0.68 2.48 c-0.04 0.08 0 0.16 0.12 0.16 s1.28 -0.56 2.08 -0.96 c1.16 -0.6 1.96 -1.04 2.56 -1.04 s1.08 0.48 1.08 1.28 c-0.08 1.12 -0.04 1.8 0.32 1.84 c0.72 0.16 3.32 -0.64 5.32 -1.48 l6.16 -2.56 c0.36 -0.16 0.56 0.4 0.12 0.6 c-1.64 0.84 -3.92 1.76 -6.04 2.68 c-2.08 0.88 -4.8 1.76 -6 1.52 c-0.84 -0.16 -1.04 -1 -0.96 -2.12 c0.04 -0.6 0 -0.84 -0.12 -0.92 c-0.2 -0.12 -0.64 0.04 -1.4 0.44 c-0.64 0.32 -2.84 1.44 -3.2 1.44 c-0.24 0 -0.96 -0.28 -0.96 -0.6 c0 -0.2 0.52 -1.56 0.72 -2.84 z M159.89999999999998 40.48 c-2.08 0.16 -3 -1.6 -2.16 -3.44 c0.8 -1.84 2.4 -2.56 3.24 -2.4 c0.76 0.12 1 0.76 0.68 1.68 c-0.48 1.24 -1.96 2.12 -3.4 2.6 c0.16 0.56 0.68 0.84 1.4 0.8 c1.84 -0.16 4.4 -1.44 11.64 -4.6 c0.52 -0.24 0.64 0.28 0.32 0.4 c-6.08 2.68 -9.52 4.8 -11.72 4.96 z M158.45999999999998 37.32 c-0.2 0.44 -0.28 0.8 -0.28 1.12 c1.16 -0.4 2.56 -1.52 2.88 -2.4 c0.12 -0.36 0.08 -0.72 -0.2 -0.8 c-0.44 -0.12 -1.72 0.4 -2.4 2.08 z M166.58599999999998 39.2 c-0.12 -0.92 0.52 -2.16 1.96 -3.36 c1.28 -1.08 2.28 -1.28 2.96 -1.28 c0.92 0 0.84 1 0.44 0.84 c-0.52 -0.2 -1.52 -0.04 -2.8 0.92 s-1.76 1.92 -1.72 2.6 c0.04 0.84 1.28 1.2 2.6 1.04 c2.96 -0.32 9.48 -3.32 12.32 -4.84 c0.2 -0.12 1.04 -0.08 0.4 0.36 c-3 1.92 -9.76 4.72 -12.48 5.12 c-1.88 0.28 -3.48 -0.04 -3.68 -1.4 z M179.55199999999996 50.36 c-0.52 0.12 -0.88 -1.48 -0.84 -4.44 c0.08 -2.44 0.68 -10.84 1.88 -17.28 c0.28 -1.48 0.56 -2.8 0.84 -4 c-7.8 0 -8.52 0.04 -8.68 -0.56 c-0.08 -0.36 1.04 -0.84 1.36 -0.64 c0.4 0.24 0.68 0.36 1.84 0.36 l5.68 0.04 c1.28 -5.12 2.48 -7.2 3.04 -7.2 c0.32 0 0.56 0.96 0.48 1.32 c-0.12 0.48 -0.28 -0.2 -0.72 0.76 c-0.08 0.12 -0.92 2.32 -1.68 5.12 c1.4 0 1.92 0.12 5.88 0.12 c3.68 0 4.64 -0.2 4.76 0.24 c0.08 0.48 -1.88 0.44 -4.88 0.44 l-6 0 c-0.36 1.44 -0.72 2.96 -0.96 4.44 c-0.36 1.96 -0.96 5.44 -1.48 9.64 c-0.32 2.28 -0.72 7.96 -0.48 9.88 c0.2 1.52 0.52 1.68 -0.04 1.76 z"></path></g><g id="SvgjsG3826" featureKey="sloganFeature-0" transform="matrix(0.34710097188510464,0,0,0.34710097188510464,96.76611467874815,57.62377901972549)" fill="#111111"><path d="M5.459 16.8945 l-0.0097656 -0.019531 c0.86914 0 1.5918 -0.72266 1.5918 -1.5918 c0 -0.67383 -0.26367 -1.1035 -0.80078 -1.2988 c-1.1328 -0.41992 -0.85938 -0.32227 -1.9629 -0.70313 c-1.1621 -0.40039 -2.2363 -1.1914 -2.959 -2.1777 c-0.42969 -0.58594 -0.64453 -1.3086 -0.64453 -2.1777 c0 -1.3086 0.46875 -2.4316 1.4063 -3.3691 s2.0605 -1.4063 3.3789 -1.4063 c1.3086 0 2.4316 0.46875 3.3691 1.4063 s1.4063 2.0605 1.4063 3.3691 l-3.1738 0 c0 -0.85938 -0.72266 -1.582 -1.582 -1.582 c-0.86914 0 -1.5918 0.72266 -1.5918 1.5918 c0 0.56641 0.22461 0.99609 0.68359 1.2891 c0.9375 0.60547 0.83008 0.48828 1.9531 0.82031 c1.2109 0.35156 2.3047 1.1035 3.0566 2.0703 c0.43945 0.56641 0.66406 1.2988 0.66406 2.1875 c0 1.3184 -0.46875 2.4414 -1.4063 3.3789 s-2.0605 1.4063 -3.3691 1.4063 c-1.3184 0 -2.4414 -0.46875 -3.3789 -1.4063 s-1.4063 -2.0605 -1.4063 -3.3789 l3.1836 0 c0 0.87891 0.71289 1.5918 1.5918 1.5918 z M16.3408203125 20 l0 -15.742 l3.1543 0 l0 15.742 l-3.1543 0 z M25.708984375 3.965 l7.6758 10.527 l7.6758 -10.527 l0 16.035 l-3.1543 0 l0 -6.4941 l-4.5215 6.2402 l-4.5215 -6.2402 l0 6.4941 l-3.1543 0 l0 -16.035 z M47.2744140625 20 l0 -4.7266 l0 -5.5078 l0 -5.5078 l3.1543 0 l2.3535 0 c1.5137 0 2.8125 0.53711 3.8965 1.6211 s1.6211 2.3828 1.6211 3.8965 s-0.53711 2.8125 -1.6211 3.8867 s-2.3828 1.6113 -3.8965 1.6113 l-2.3535 0 l0 4.7266 l-3.1543 0 z M50.4286640625 12.1289 l2.3535 0.0097656 c0.6543 0 1.2109 -0.23438 1.6699 -0.69336 s0.69336 -1.0156 0.69336 -1.6699 c0 -0.64453 -0.23438 -1.2012 -0.69336 -1.6699 s-1.0156 -0.70313 -1.6699 -0.70313 l-2.3535 0 l0 2.3633 l0 2.3633 z M64.318359375 4.257999999999999 l3.1543 0 l0 12.588 l6.2891 0 l0 3.1543 l-9.4434 0 l0 -15.742 z M79.5849609375 4.257999999999999 l9.4434 0 l0 3.1445 l-6.2891 0 l0 3.1543 l4.7168 0 l0 3.1445 l-4.7168 0 l0 3.1445 l6.2891 0 l0 3.1543 l-6.2891 0 l-3.1543 0 l0 -15.742 z M113.2138234375 4.18 l-0.0097656 0.039063 c1.0938 0 2.1191 0.20508 3.0859 0.625 s1.8164 0.98633 2.5488 1.6992 l-2.2461 2.2461 c-0.94727 -0.9375 -2.0703 -1.4063 -3.3691 -1.4063 c-1.3184 0 -2.4414 0.46875 -3.3691 1.4063 s-1.3965 2.0605 -1.3965 3.3691 c0 1.3184 0.46875 2.4414 1.3965 3.3691 s2.0508 1.3965 3.3691 1.3965 s2.4414 -0.46875 3.3789 -1.4063 l2.2461 2.2461 c-0.73242 0.72266 -1.582 1.2891 -2.5488 1.709 s-1.9922 0.625 -3.0859 0.625 c-2.1875 0 -4.0625 -0.78125 -5.6152 -2.334 s-2.334 -3.4277 -2.334 -5.6152 s0.78125 -4.0625 2.334 -5.625 s3.4277 -2.3438 5.6152 -2.3438 z M124.662109375 4.257999999999999 l3.1543 0 l0 12.588 l6.2891 0 l0 3.1543 l-9.4434 0 l0 -15.742 z M147.4872609375 4.18 c2.1875 0 4.0625 0.78125 5.625 2.3438 s2.3438 3.4375 2.3438 5.625 s-0.78125 4.0625 -2.3438 5.6152 s-3.4375 2.334 -5.625 2.334 s-4.0625 -0.78125 -5.6152 -2.334 s-2.334 -3.4277 -2.334 -5.6152 s0.78125 -4.0625 2.334 -5.625 s3.4277 -2.3438 5.6152 -2.3438 z M147.4872609375 7.353999999999999 c-1.3184 0 -2.4414 0.46875 -3.3691 1.4063 s-1.3965 2.0605 -1.3965 3.3691 c0 1.3184 0.46875 2.4414 1.3965 3.3691 s2.0508 1.3965 3.3691 1.3965 c1.3086 0 2.4316 -0.46875 3.3691 -1.3965 s1.4063 -2.0508 1.4063 -3.3691 c0 -1.3086 -0.46875 -2.4316 -1.4063 -3.3691 s-2.0605 -1.4063 -3.3691 -1.4063 z M170.742515625 4.257999999999999 l3.1738 0 l0 6.3281 l0 3.1641 c0 1.748 -0.61523 3.2422 -1.8555 4.4824 s-2.7344 1.8555 -4.4727 1.8555 c-1.748 0 -3.2422 -0.61523 -4.4824 -1.8555 s-1.8555 -2.7344 -1.8555 -4.4824 l0 -3.1641 l0 -6.3281 l3.1738 0 l0 6.3281 l0 2.832 l0 0.32227 c0 0.86914 0.3125 1.6113 0.92773 2.2266 s1.3574 0.92773 2.2266 0.92773 c0.85938 0 1.6016 -0.3125 2.2266 -0.92773 s0.9375 -1.3574 0.9375 -2.2266 l0 -0.32227 l0 -2.832 l0 -6.3281 z M183.9970671875 4.297000000000001 l0 -0.0097656 c2.1582 0 4.1992 0.77148 5.7422 2.3145 c2.8125 2.8125 2.8125 8.291 0 11.094 c-1.543 1.5332 -3.584 2.3047 -5.7422 2.3047 l-3.8867 0 l0 -15.703 l3.8867 0 z M184.0068671875 16.8457 l0.0097656 0 c1.2891 0 2.4805 -0.36133 3.3984 -1.2793 s1.2793 -2.1289 1.2793 -3.4277 c0 -1.2891 -0.36133 -2.5 -1.2891 -3.4277 c-0.91797 -0.92773 -2.1289 -1.2891 -3.418 -1.2891 l-0.72266 0 l0 9.4238 l0.74219 0 z M212.0595671875 4.297000000000001 l0 -0.0097656 c2.1582 0 4.1992 0.77148 5.7422 2.3145 c2.8125 2.8125 2.8125 8.291 0 11.094 c-1.543 1.5332 -3.584 2.3047 -5.7422 2.3047 l-3.8867 0 l0 -15.703 l3.8867 0 z M212.0693671875 16.8457 l0.0097656 0 c1.2891 0 2.4805 -0.36133 3.3984 -1.2793 s1.2793 -2.1289 1.2793 -3.4277 c0 -1.2891 -0.36133 -2.5 -1.2891 -3.4277 c-0.91797 -0.92773 -2.1289 -1.2891 -3.418 -1.2891 l-0.72266 0 l0 9.4238 l0.74219 0 z M229.728503125 14.7949 l2.7832 0 l-1.3867 -3.2715 z M228.439503125 17.5781 l-0.019531 -0.0097656 c-0.35156 0.80078 -0.71289 1.5918 -1.0742 2.3926 l-3.3887 0 l7.1387 -15.996 l7.1582 15.996 l-3.3984 0 c-0.35156 -0.79102 -0.70313 -1.5918 -1.0547 -2.3828 l-5.3613 0 z M245.0146640625 4.257999999999999 l3.1543 0 l3.9355 0 l0 3.1445 l-3.9355 0 l0 12.598 l-3.1543 0 l0 -12.598 l-3.9355 0 l0 -3.1445 l3.9355 0 z M260.642565625 14.7949 l2.7832 0 l-1.3867 -3.2715 z M259.353565625 17.5781 l-0.019531 -0.0097656 c-0.35156 0.80078 -0.71289 1.5918 -1.0742 2.3926 l-3.3887 0 l7.1387 -15.996 l7.1582 15.996 l-3.3984 0 c-0.35156 -0.79102 -0.70313 -1.5918 -1.0547 -2.3828 l-5.3613 0 z M285.53125 20 l0 -15.742 l3.1543 0 l0 15.742 l-3.1543 0 z M294.8994140625 3.965 l9.4434 8.9941 l0 -8.7012 l3.1543 0 l0 16.035 l-9.4434 -9.0039 l0 8.7109 l-3.1543 0 l0 -16.035 z M317.4511875 4.257999999999999 l3.1543 0 l3.9355 0 l0 3.1445 l-3.9355 0 l0 12.598 l-3.1543 0 l0 -12.598 l-3.9355 0 l0 -3.1445 l3.9355 0 z M330.5595703125 4.257999999999999 l9.4434 0 l0 3.1445 l-6.2891 0 l0 3.1543 l4.7168 0 l0 3.1445 l-4.7168 0 l0 3.1445 l6.2891 0 l0 3.1543 l-6.2891 0 l-3.1543 0 l0 -15.742 z M353.677690625 4.18 l0.0097656 0.029297 c1.0938 0 2.1191 0.20508 3.0859 0.625 s1.8164 0.98633 2.5488 1.6992 l-2.2461 2.2461 c-0.94727 -0.9375 -2.0703 -1.4063 -3.3691 -1.4063 c-1.3184 0 -2.4414 0.46875 -3.3691 1.4063 s-1.3965 2.0605 -1.3965 3.3691 c0 1.3184 0.46875 2.4414 1.3965 3.3691 s2.0508 1.3965 3.3691 1.3965 c1.0352 0 1.9629 -0.29297 2.7734 -0.88867 s1.3867 -1.3574 1.7188 -2.2852 l-4.502 0 l0 -3.1738 l4.502 0 l1.8457 0 l1.4453 0 c0.10742 0.49805 0.15625 1.0254 0.15625 1.582 c0 2.1875 -0.78125 4.0625 -2.3438 5.6152 s-3.4375 2.334 -5.625 2.334 s-4.0625 -0.78125 -5.6152 -2.334 s-2.334 -3.4277 -2.334 -5.6152 s0.78125 -4.0625 2.334 -5.625 s3.4277 -2.3438 5.6152 -2.3438 z M367.4501953125 20 l-0.0097656 -15.762 l5.1172 0 c1.5137 0 3.0078 0.52734 4.0918 1.6113 s1.5234 2.0996 1.5234 3.6133 l0 0.48828 c0 1.1719 -0.33203 2.0313 -0.99609 2.9688 s-1.2207 1.2109 -2.2559 1.6016 l3.5547 5.4785 l-3.8477 0 l-4.0234 -6.1523 l0 6.1523 l-3.1543 0 z M370.5947453125 11.8164 l2.2559 0.0097656 c0.6543 0 0.98633 -0.16602 1.4453 -0.625 s0.625 -0.98633 0.625 -1.6406 c0 -0.64453 -0.16602 -1.0742 -0.625 -1.543 s-1.2793 -0.63477 -1.9336 -0.63477 l-1.7676 0 l0 4.4336 z M389.943346875 14.7949 l2.7832 0 l-1.3867 -3.2715 z M388.654346875 17.5781 l-0.019531 -0.0097656 c-0.35156 0.80078 -0.71289 1.5918 -1.0742 2.3926 l-3.3887 0 l7.1387 -15.996 l7.1582 15.996 l-3.3984 0 c-0.35156 -0.79102 -0.70313 -1.5918 -1.0547 -2.3828 l-5.3613 0 z M405.2295078125 4.257999999999999 l3.1543 0 l3.9355 0 l0 3.1445 l-3.9355 0 l0 12.598 l-3.1543 0 l0 -12.598 l-3.9355 0 l0 -3.1445 l3.9355 0 z M418.337890625 20 l0 -15.742 l3.1543 0 l0 15.742 l-3.1543 0 z M435.2646046875 4.18 c2.1875 0 4.0625 0.78125 5.625 2.3438 s2.3438 3.4375 2.3438 5.625 s-0.78125 4.0625 -2.3438 5.6152 s-3.4375 2.334 -5.625 2.334 s-4.0625 -0.78125 -5.6152 -2.334 s-2.334 -3.4277 -2.334 -5.6152 s0.78125 -4.0625 2.334 -5.625 s3.4277 -2.3438 5.6152 -2.3438 z M435.2646046875 7.353999999999999 c-1.3184 0 -2.4414 0.46875 -3.3691 1.4063 s-1.3965 2.0605 -1.3965 3.3691 c0 1.3184 0.46875 2.4414 1.3965 3.3691 s2.0508 1.3965 3.3691 1.3965 c1.3086 0 2.4316 -0.46875 3.3691 -1.3965 s1.4063 -2.0508 1.4063 -3.3691 c0 -1.3086 -0.46875 -2.4316 -1.4063 -3.3691 s-2.0605 -1.4063 -3.3691 -1.4063 z M449.037109375 3.965 l9.4434 8.9941 l0 -8.7012 l3.1543 0 l0 16.035 l-9.4434 -9.0039 l0 8.7109 l-3.1543 0 l0 -16.035 z"></path></g>
			</g>
		</svg>
	